<svg width="1024" height="1024" viewBox="0 0 1024 1024" fill="none" xmlns="http://www.w3.org/2000/svg">
<path d="M328.998 29.5C353.383 29.5 373.331 48.9227 373.982 73.2988L381.673 361.228C383.221 419.188 430.653 465.371 488.635 465.371H514.591C572.747 465.371 620.255 418.92 621.563 360.778L628.03 73.4873C628.581 49.0353 648.561 29.5 673.02 29.5H905.659C932.613 29.5003 953.52 53.034 950.346 79.7998L846.507 955.3C843.821 977.944 824.623 995 801.82 995H646.37C620.549 995 600.023 973.318 601.438 947.535L615.589 689.567C616.504 688.892 617.455 688.254 618.44 687.654C651.274 667.694 638.069 616.61 599.645 616.61H582.954C567.276 616.61 553.206 606.981 547.53 592.365L537.252 565.896C524.699 533.57 478.959 533.57 466.406 565.896L456.128 592.365C450.453 606.981 436.384 616.61 420.705 616.61H404.014C365.589 616.611 352.385 667.694 385.218 687.654C386.465 688.412 387.656 689.234 388.789 690.112L405.518 947.077C407.206 973.025 386.615 995 360.612 995H221.887C199.084 995 179.886 977.944 177.2 955.3L73.3584 79.7998C70.184 53.0338 91.0923 29.5 118.046 29.5H328.998Z" fill="#E6E6E6"/>
<ellipse cx="415.529" cy="658.315" rx="32.54" ry="26.1757" transform="rotate(25 415.529 658.315)" fill="#E6E6E6"/>
<ellipse cx="590.34" cy="658.156" rx="32.54" ry="26.1757" transform="rotate(-25 590.34 658.156)" fill="#E6E6E6"/>
<ellipse cx="501.527" cy="597.395" rx="32.54" ry="26.1757" transform="rotate(-90 501.527 597.395)" fill="#E6E6E6"/>
</svg>
